<svg width="237" height="56" viewBox="0 0 237 56" fill="none" xmlns="http://www.w3.org/2000/svg">
<path d="M225.293 16.3388C227.718 16.3388 229.787 16.7704 231.513 17.6483C233.254 18.5114 234.504 19.806 235.263 21.547C235.635 22.3655 235.873 23.2732 235.977 24.2404C236.081 25.1928 236.126 26.2047 236.126 27.2463V43.734H232.227V39.5823C231.334 40.9364 230.233 42.0227 228.924 42.8263C227.138 43.9274 224.936 44.478 222.361 44.478C220.367 44.478 218.701 44.1209 217.347 43.3917C216.007 42.6477 214.996 41.6805 214.311 40.4751C213.641 39.2698 213.299 37.9603 213.299 36.5318C213.299 35.1032 213.567 33.9277 214.088 32.9009C214.624 31.8593 215.382 31.0111 216.365 30.3266C217.332 29.6421 218.493 29.0915 219.847 28.7046C221.111 28.3623 222.525 28.0647 224.088 27.8118C225.665 27.5439 227.257 27.3058 228.879 27.0975C229.906 26.9636 230.873 26.8296 231.811 26.6957C231.766 24.672 231.29 23.1541 230.382 22.1423C229.4 21.0113 227.689 20.4459 225.248 20.4459C223.641 20.4459 222.213 20.8179 221.007 21.5619C219.802 22.2911 218.954 23.4666 218.463 25.1184L214.296 23.8535C214.936 21.5173 216.186 19.687 218.016 18.3477C219.862 17.0085 222.287 16.3537 225.293 16.3537V16.3388ZM229.058 30.8028C227.674 30.9813 226.364 31.1748 225.129 31.398C223.894 31.5914 222.793 31.8295 221.796 32.1122C221.067 32.3355 220.382 32.6331 219.742 33.0051C219.118 33.3622 218.612 33.8384 218.21 34.4187C217.838 34.9842 217.644 35.6836 217.644 36.5169C217.644 37.246 217.823 37.9306 218.18 38.5853C218.552 39.24 219.132 39.7757 219.906 40.1924C220.695 40.6091 221.722 40.8025 222.986 40.8025C224.564 40.8025 225.933 40.5198 227.079 39.9692C228.254 39.3888 229.192 38.6448 229.891 37.7222C230.605 36.7847 231.067 35.758 231.275 34.6568C231.528 33.8384 231.647 32.9158 231.677 31.9188C231.692 31.3533 231.706 30.8623 231.706 30.4456C230.799 30.5647 229.906 30.6986 229.028 30.8028H229.058ZM132.26 16.3388C134.73 16.3388 136.858 16.9638 138.628 18.184C140.429 19.4042 141.798 21.0709 142.75 23.1988C143.703 25.3267 144.179 27.7225 144.179 30.3861C144.179 33.0497 143.703 35.4455 142.75 37.5734C141.798 39.7013 140.429 41.3828 138.628 42.6328C136.858 43.8679 134.715 44.478 132.23 44.478C129.73 44.478 127.617 43.8679 125.906 42.6328C125.355 42.231 124.849 41.7846 124.373 41.2787V55.5938H119.953V17.0829H123.882V20.0441C124.477 19.3298 125.147 18.7048 125.906 18.1691C127.632 16.9489 129.745 16.3388 132.245 16.3388H132.26ZM131.56 20.3715C129.834 20.3715 128.406 20.803 127.26 21.6512C126.129 22.4845 125.281 23.6601 124.715 25.1779C124.15 26.6808 123.882 28.407 123.882 30.3861C123.882 32.3652 124.15 34.0616 124.7 35.5943C125.266 37.1121 126.114 38.3026 127.275 39.1656C128.42 40.0138 129.894 40.4454 131.694 40.4454C133.45 40.4454 134.908 39.999 136.069 39.1061C137.215 38.2133 138.078 37.0228 138.658 35.505C139.239 33.9723 139.521 32.2611 139.521 30.3712C139.521 28.4963 139.239 26.7999 138.658 25.2821C138.093 23.7642 137.23 22.5589 136.039 21.681C134.864 20.7881 133.376 20.3417 131.575 20.3417L131.56 20.3715ZM198.523 43.734H194.594V40.7132C193.999 41.4424 193.329 42.0822 192.571 42.6328C190.859 43.8679 188.746 44.478 186.246 44.478C183.746 44.478 181.633 43.8679 179.848 42.6328C178.077 41.3828 176.693 39.7013 175.726 37.5734C174.773 35.4455 174.297 33.0497 174.297 30.3861C174.297 27.7225 174.773 25.3267 175.726 23.1988C176.693 21.0709 178.062 19.4042 179.848 18.184C181.618 16.9489 183.746 16.3388 186.217 16.3388C188.687 16.3388 190.844 16.9489 192.556 18.1691C193.106 18.556 193.627 19.0025 194.088 19.4935V8.19916H198.508V43.7489L198.523 43.734ZM186.931 20.3715C185.115 20.3715 183.627 20.8179 182.437 21.7107C181.261 22.6036 180.398 23.794 179.818 25.3118C179.252 26.8296 178.97 28.526 178.97 30.401C178.97 32.2759 179.252 34.0021 179.833 35.5348C180.413 37.0526 181.276 38.243 182.422 39.1359C183.598 40.0287 185.041 40.4751 186.797 40.4751C188.583 40.4751 190.056 40.0436 191.216 39.1954C192.362 38.3174 193.21 37.127 193.761 35.6241C194.326 34.0914 194.594 32.3503 194.594 30.4159C194.594 28.4814 194.312 26.7106 193.761 25.2077C193.225 23.6898 192.377 22.5143 191.246 21.681C190.115 20.8179 188.672 20.4012 186.931 20.4012V20.3715ZM103.525 16.3388C106.189 16.3388 108.48 16.9341 110.415 18.1394C112.334 19.3298 113.808 20.9816 114.834 23.0946C115.876 25.2077 116.382 27.6332 116.382 30.3712C116.382 33.1539 115.861 35.6092 114.834 37.7222C113.793 39.8353 112.32 41.487 110.385 42.6775C108.466 43.8679 106.174 44.4482 103.525 44.4482C100.876 44.4482 98.5848 43.853 96.6652 42.6477C94.7605 41.4424 93.2874 39.7906 92.2457 37.6627C91.2041 35.5348 90.6981 33.1092 90.6833 30.3563C90.6833 27.5588 91.2041 25.1035 92.2606 23.0053C93.3171 20.8923 94.8052 19.2554 96.7248 18.0947C98.6444 16.9043 100.906 16.3091 103.51 16.3091L103.525 16.3388ZM103.525 20.5203C101.665 20.5203 100.132 20.9369 98.9271 21.7851C97.7218 22.6184 96.8289 23.7791 96.2337 25.2672C95.6385 26.7552 95.3409 28.4665 95.3409 30.401C95.3409 33.392 96.0254 35.8026 97.4093 37.6032C98.7932 39.4037 100.832 40.3114 103.51 40.3114C106.278 40.3114 108.332 39.3888 109.686 37.5437C111.04 35.6985 111.71 33.3176 111.71 30.3861C111.71 27.4546 111.025 24.9845 109.656 23.1988C108.287 21.3982 106.248 20.5054 103.51 20.5054L103.525 20.5203ZM159.461 16.3388C162.14 16.3388 164.417 16.9638 166.291 18.184C168.181 19.4191 169.595 21.175 170.532 23.4666C171.485 25.7582 171.901 28.4814 171.768 31.6361H151.322C151.485 34.1955 152.185 36.2193 153.405 37.7073C154.819 39.4335 156.842 40.2966 159.446 40.2966C161.202 40.2966 162.735 39.8948 164.044 39.0912C165.339 38.2877 166.366 37.127 167.11 35.6092L171.336 37.0675C170.294 39.4186 168.732 41.2489 166.649 42.5435C164.58 43.8233 162.244 44.4631 159.67 44.4631C157.095 44.4631 154.774 43.8828 152.81 42.737C150.86 41.5614 149.357 39.9543 148.271 37.871C147.185 35.7878 146.649 33.3473 146.649 30.5647C146.649 27.782 147.185 25.1333 148.256 23.0053C149.328 20.8625 150.816 19.2257 152.72 18.065C154.64 16.8894 156.902 16.3091 159.491 16.3091L159.461 16.3388ZM159.61 20.2971C156.902 20.2971 154.833 21.175 153.42 22.9161C152.363 24.2255 151.694 25.9666 151.426 28.1243H167.229C166.991 25.8178 166.351 24.0172 165.339 22.7375C164.059 21.1155 162.14 20.2971 159.61 20.2971ZM76.7699 8.19916C77.1122 8.19916 77.5288 8.21404 78.005 8.2438C78.4812 8.25869 78.9425 8.30333 79.3889 8.39261C81.3085 8.69022 82.9305 9.34497 84.2251 10.3717C85.5346 11.3985 86.5316 12.6782 87.1863 14.2407C87.8411 15.7883 88.1684 17.4995 88.1684 19.4042C88.1684 22.1571 87.4542 24.538 86.0256 26.5618C85.0286 27.9606 83.7043 29.0022 82.0525 29.6718L88.9125 43.7489H83.8828L77.5139 30.6242H67.1124V43.7489H62.7227V8.19916H76.7699ZM67.1124 26.4427H76.6211C76.9336 26.4427 77.2907 26.4279 77.6776 26.3981C78.0943 26.3683 78.4812 26.3088 78.8383 26.2195C79.9692 25.9517 80.8918 25.4755 81.6061 24.791C82.3353 24.0767 82.8561 23.2583 83.1834 22.3208C83.5108 21.3685 83.6745 20.4012 83.6745 19.4042C83.6745 18.4072 83.5108 17.4549 83.1834 16.5174C82.8561 15.565 82.3353 14.7317 81.6061 14.0175C80.8918 13.3032 79.9841 12.827 78.8383 12.5889C78.4812 12.4848 78.0943 12.4252 77.6776 12.4104C77.2759 12.3806 76.9336 12.3657 76.6211 12.3657H67.1124V26.4279V26.4427ZM208.85 43.734H204.46V17.0829H208.85V43.734ZM208.85 12.3657H204.46V7.82715H208.85V12.3657Z" fill="#000000"/>
<path d="M18.3329 49.3738H0V34.5676H17.0234L18.318 49.3738H18.3329ZM40.5496 49.3738H20.6096L19.315 34.5676H36.5765L40.5496 49.3738ZM49.3738 49.3738H42.9156L38.9425 34.5676H49.3738V49.3738ZM16.8299 32.276H0V17.0829H15.5056L16.8299 32.276ZM23.6155 17.0978C24.1809 21.5917 28.0052 25.0738 32.6629 25.0738C33.1242 25.0738 33.5706 25.044 34.017 24.9696L35.9812 32.2909H19.1215L17.7972 17.0978H23.6304H23.6155ZM49.3738 32.276H38.3324L36.2044 24.3446C39.1359 23.1095 41.2936 20.3715 41.6954 17.0829H49.3589V32.276H49.3738ZM15.2972 14.8211H0V0H14.0026L15.2972 14.8062V14.8211ZM29.3296 7.47005C26.294 8.67538 24.047 11.458 23.6304 14.8062H17.6037L16.2942 0H27.3207L29.3147 7.47005H29.3296ZM49.3738 14.8211H41.7103C41.1448 10.3271 37.3205 6.84507 32.6629 6.84507C32.276 6.84507 31.904 6.87483 31.5319 6.91947L29.6868 0.0148806H49.3738V14.8211Z" fill="#000000"/>
</svg>
